# xmcd
#
# Track frame offsets:
#	150
#	14601
#	28627
#	38453
#	53405
#	67487
#	80197
#	95770
#	113544
#	123209
#	134226
#	145271
#	164877
#	179043
#	189015
#	199453
#	212024
#	226036
#
# Disc length: 3154 seconds
#
# Revision: 0
# Processed by: cddbd v1.5.2PL0 Copyright (c) Steve Scherf et al.
# Submitted via: EasyCDDAExtractor 10.2.0.1
#
DISCID=0c0c5012
DTITLE=Various Artist - Circuit Rider Records Vol. 39
DYEAR=2002
DGENRE=
TTITLE0=Shining Lights - He Walks Right Beside Me
TTITLE1=Gina White - I'm Your Lord
TTITLE2=Mary Cox McCain - Grace Came Walking
TTITLE3=Melanie Walker - Surely Goodness And Mercy
TTITLE4=Tony McGill - God Will Work It Out
TTITLE5=Graveyard Calls - W.C. Taylor
TTITLE6=Gladys Jones - Is Anybody Out There
TTITLE7=Otha Geeslin - I've Been Changed
TTITLE8=Julia - Raptured Away
TTITLE9=James Windrow - Walking And Talking With My Lord
TTITLE10=The Helms - They'll Take Him Out Of My Heart
TTITLE11=Dobbie Poyner - Lord, You Have A Purpose
TTITLE12=Allen Rooker - Reassure Me Again
TTITLE13=Bob Mayfield - When Jesus Comes Again
TTITLE14=Bob Mayfield - He's God's Grace
TTITLE15=Gary Warlick - Image Of My Daddy
TTITLE16=Lyle Stubbs - On Jordans Banks
TTITLE17=The Marksmen - Preach The Cross
EXTD=
EXTT0=
EXTT1=
EXTT2=
EXTT3=
EXTT4=
EXTT5=
EXTT6=
EXTT7=
EXTT8=
EXTT9=
EXTT10=
EXTT11=
EXTT12=
EXTT13=
EXTT14=
EXTT15=
EXTT16=
EXTT17=
PLAYORDER=
